<?xml version="1.0" standalone="no"?>
<!DOCTYPE svg PUBLIC "-//W3C//DTD SVG 20010904//EN"
 "http://www.w3.org/TR/2001/REC-SVG-20010904/DTD/svg10.dtd">
<svg version="1.0" xmlns="http://www.w3.org/2000/svg"
 width="1084.000000pt" height="1084.000000pt" viewBox="0 0 1084.000000 1084.000000"
 preserveAspectRatio="xMidYMid meet">
<metadata>
Created by potrace 1.11, written by Peter Selinger 2001-2013
</metadata>
<g transform="translate(0.000000,1084.000000) scale(0.100000,-0.100000)"
fill="#000000" stroke="none">
<path d="M5225 9323 c-966 -61 -1851 -459 -2531 -1138 -558 -556 -931 -1259
-1078 -2030 -51 -269 -61 -386 -61 -735 1 -277 4 -348 22 -485 70 -514 219
-972 454 -1394 44 -79 77 -146 74 -150 -13 -12 -399 -6 -475 8 -94 17 -199 54
-261 93 -183 112 -210 333 -74 615 49 99 153 261 235 361 l51 64 -23 84 c-13
46 -26 84 -29 84 -10 0 -242 -242 -330 -345 -215 -250 -384 -495 -479 -690
-65 -136 -93 -215 -115 -329 -76 -394 176 -649 697 -706 294 -31 766 6 1193
93 l110 23 135 -131 c587 -567 1342 -940 2135 -1054 445 -64 933 -52 1355 34
1582 322 2808 1588 3074 3175 38 228 50 367 50 616 l1 231 55 -25 c103 -48
237 -21 305 60 l26 30 -108 60 c-136 76 -302 184 -307 200 -3 7 -7 30 -9 50
l-6 37 84 -62 c169 -125 393 -254 593 -341 110 -48 252 -100 258 -94 2 2 -40
124 -94 270 l-97 265 -105 71 c-330 223 -680 602 -909 987 -87 146 -181 327
-181 350 0 6 -29 25 -64 42 -58 29 -70 41 -125 120 -623 906 -1613 1513 -2701
1658 -232 30 -531 42 -745 28z m2710 -1159 c127 -77 281 -221 414 -388 65 -82
71 -93 71 -137 0 -73 39 -282 76 -412 80 -280 203 -529 363 -740 68 -91 94
-143 86 -174 l-6 -26 -26 24 c-14 13 -60 65 -101 114 -41 50 -78 91 -82 93
-11 4 -47 -48 -66 -94 -36 -85 -10 -211 57 -280 l30 -31 -65 -85 c-61 -82 -64
-87 -49 -108 31 -44 -20 -5 -74 57 -111 128 -184 267 -224 427 -12 48 -25 85
-29 84 -3 -2 -61 -46 -129 -98 l-122 -95 6 -45 c3 -25 17 -84 32 -132 l26 -87
-21 -48 -20 -47 -16 38 c-26 63 -55 163 -62 216 -4 27 -10 50 -15 50 -14 0
-230 -171 -236 -187 -8 -20 41 -167 87 -261 39 -82 147 -249 176 -272 32 -28
16 -40 -53 -40 -67 0 -68 0 -115 47 -26 26 -48 52 -48 57 0 5 -29 39 -64 75
-56 58 -65 74 -76 126 -8 33 -14 61 -15 63 -1 1 -23 -3 -48 -10 -41 -11 -48
-10 -66 6 -19 17 -21 17 -50 -5 l-30 -22 -59 26 c-72 33 -95 33 -186 6 -170
-51 -206 -72 -206 -118 0 -24 64 -141 77 -141 4 0 14 6 22 14 15 13 92 39 98
32 3 -3 -233 -166 -241 -166 -3 0 -6 12 -6 28 0 25 -5 28 -52 40 -63 14 -83
36 -93 99 -4 26 -13 60 -21 74 -13 26 -68 59 -98 59 -8 0 -27 5 -41 12 -21 9
-25 18 -25 53 0 50 -26 131 -45 139 -18 7 -31 -11 -44 -61 -15 -54 -50 -97
-73 -88 -9 4 -22 20 -28 36 -14 32 -83 79 -117 79 -15 0 -27 -16 -48 -65 -20
-47 -36 -70 -56 -81 l-29 -15 0 124 0 125 -31 6 c-17 3 -44 6 -58 6 -19 0 -41
14 -71 45 -24 25 -48 41 -52 37 -4 -4 -11 -28 -14 -52 -6 -43 -5 -46 29 -64
19 -10 49 -33 67 -51 l31 -32 -12 -62 c-9 -47 -15 -61 -26 -57 -8 4 -21 6 -29
6 -7 0 -29 24 -47 53 -43 66 -109 121 -136 112 -11 -3 -29 -21 -41 -40 -14
-22 -34 -38 -58 -45 -44 -14 -62 -34 -62 -69 0 -20 -11 -32 -49 -55 -43 -25
-50 -34 -55 -70 -26 -167 -26 -167 -55 -164 -23 3 -27 8 -31 50 -6 52 -40 98
-72 98 -11 0 -40 20 -66 44 l-47 44 17 36 17 35 81 0 c45 0 92 6 107 13 32 15
49 54 40 90 -5 20 -11 24 -39 20 -55 -6 -69 13 -73 100 -4 98 -9 113 -46 128
-16 7 -46 32 -64 55 -29 35 -35 50 -35 89 l0 46 50 0 c47 0 51 -2 76 -40 37
-56 150 -150 180 -150 18 0 31 12 53 46 28 45 28 47 15 107 -7 34 -13 82 -14
106 0 44 0 44 20 26 12 -10 30 -33 41 -51 10 -18 26 -35 35 -38 8 -3 44 8 79
24 35 17 78 30 94 30 35 0 46 14 43 52 -2 22 7 34 54 69 49 36 62 53 100 134
70 148 53 190 -38 95 -46 -48 -51 -50 -101 -50 -49 0 -53 2 -64 30 -10 28 -9
31 16 46 25 15 30 27 44 108 17 95 13 115 -21 97 -11 -6 -35 -11 -53 -11 -37
0 -96 -33 -103 -58 -3 -9 -8 -53 -11 -97 -8 -100 8 -136 82 -184 49 -32 51
-35 41 -63 -18 -52 -46 -62 -155 -55 -91 5 -99 4 -140 -20 l-43 -25 0 96 c0
101 19 171 60 224 15 18 20 40 20 81 0 46 7 69 41 131 22 41 46 80 52 86 7 6
46 23 87 38 41 15 93 43 117 62 l42 35 98 -35 98 -34 45 24 c33 17 62 23 107
24 58 0 63 -2 69 -24 8 -34 1 -42 -67 -76 -49 -25 -63 -38 -84 -80 -28 -55
-28 -54 38 -64 30 -4 50 1 88 22 27 15 52 36 55 47 4 11 27 49 50 85 24 36 44
72 44 82 0 9 22 33 49 53 46 33 53 35 100 29 72 -9 100 0 117 41 19 47 18 54
-13 67 -16 7 -45 23 -65 37 -45 28 -50 63 -18 132 l19 44 -29 13 c-17 6 -30
14 -30 17 0 13 40 82 52 92 15 11 148 17 148 7 0 -4 -19 -37 -42 -72 -34 -52
-43 -75 -46 -122 l-4 -57 38 -6 c22 -4 69 -7 105 -7 89 0 93 6 86 125 -6 107
-4 109 66 80 23 -9 68 -15 121 -15 73 0 94 4 141 27 52 26 55 29 55 65 0 32
12 72 40 128 4 9 22 15 46 16 21 1 56 8 77 17 31 13 37 21 37 46 0 21 6 32 21
36 11 4 48 32 82 62 50 45 153 110 177 112 3 1 32 -15 65 -35z m-3419 -432
c32 -16 43 -29 48 -53 l6 -32 58 5 57 6 18 -39 c12 -25 32 -46 55 -58 32 -17
35 -20 17 -26 -11 -3 -36 -14 -55 -23 l-35 -17 1 -90 c1 -56 8 -107 18 -135
16 -42 16 -45 -4 -72 -16 -22 -19 -36 -14 -75 4 -26 16 -58 26 -70 19 -20 19
-24 4 -70 -8 -26 -18 -68 -22 -93 -9 -62 -17 -73 -61 -89 -48 -17 -104 -61
-123 -95 -10 -20 -21 -26 -45 -26 -26 0 -37 -8 -64 -46 -29 -42 -31 -49 -20
-75 11 -28 9 -31 -35 -70 -25 -22 -46 -46 -46 -52 0 -7 9 -23 20 -37 11 -14
20 -33 20 -42 0 -16 -11 -18 -88 -18 l-89 0 -42 45 c-27 29 -53 46 -76 51 -45
8 -92 69 -101 133 -5 37 -17 57 -60 103 -33 34 -54 66 -54 80 0 13 -27 58 -62
102 l-62 79 -22 -27 c-19 -21 -32 -26 -71 -26 -42 0 -184 41 -206 60 -4 4 1
23 13 43 17 28 20 49 18 99 l-3 63 63 33 62 33 0 55 c0 53 1 54 28 54 18 0 38
11 57 30 26 27 35 30 90 30 57 0 64 3 95 35 26 27 42 35 70 35 38 0 58 16 94
74 l18 29 119 -6 c84 -4 121 -3 125 5 4 7 13 37 19 67 l11 56 71 3 70 3 -5 44
-5 44 30 -8 c15 -5 47 -18 69 -29z m4285 -461 c20 -20 29 -39 29 -61 0 -37
-47 -90 -80 -90 -29 0 -76 26 -84 45 -37 98 64 177 135 106z m-5668 -36 l35
-15 -14 -62 c-8 -35 -16 -73 -19 -85 -3 -13 -12 -23 -20 -23 -29 0 -65 -44
-73 -90 -10 -52 -77 -168 -129 -222 l-36 -37 58 -16 c32 -10 96 -25 143 -34
76 -16 86 -21 100 -47 8 -16 20 -32 26 -36 6 -4 52 -5 103 -1 82 5 94 4 126
-16 19 -12 47 -37 61 -56 20 -26 35 -35 56 -35 29 0 29 -1 25 -42 -2 -24 -6
-66 -9 -93 -2 -28 -10 -63 -17 -78 l-12 -27 -177 0 -177 0 -7 31 c-3 17 -6 49
-6 71 l0 39 -42 -3 c-41 -3 -43 -5 -64 -57 -24 -60 -73 -107 -116 -113 l-27
-3 18 -41 c36 -79 37 -77 -29 -114 -57 -34 -60 -37 -70 -90 -6 -30 -14 -63
-16 -72 -7 -22 -11 -23 76 7 90 31 94 31 110 1 10 -20 28 -28 86 -41 l74 -16
52 -74 c29 -41 56 -74 59 -74 3 -1 9 56 12 126 6 131 -3 176 -38 189 -11 5
-10 12 8 39 19 29 29 34 77 40 30 3 81 13 113 21 32 8 79 19 104 23 l47 9 148
-111 c93 -71 148 -119 148 -130 0 -10 7 -20 15 -23 30 -12 13 -30 -47 -51
-198 -68 -193 -64 -189 -172 l2 -78 -34 -21 c-48 -28 -93 -123 -107 -227 -6
-44 -18 -106 -26 -139 -19 -74 -11 -110 29 -135 18 -11 56 -44 86 -74 l53 -55
-37 -25 c-29 -19 -43 -23 -64 -17 -15 4 -55 11 -88 15 -49 5 -66 12 -89 36
-25 26 -34 29 -91 29 l-63 0 7 -46 c7 -52 15 -51 -94 -14 -40 13 -75 21 -79
17 -8 -8 -24 -77 -31 -132 -4 -37 1 -47 59 -125 35 -47 71 -86 81 -88 30 -6
63 6 97 35 30 25 33 25 63 11 18 -9 62 -36 98 -62 57 -39 68 -52 79 -90 l12
-45 33 24 c35 27 83 32 165 15 43 -8 46 -7 70 21 20 24 33 29 66 29 103 0 133
10 195 67 l59 55 50 -7 c55 -8 55 -8 39 -54 -11 -30 -9 -35 22 -67 18 -19 37
-34 41 -34 5 0 33 18 62 40 46 35 60 40 104 40 l52 0 0 -63 c0 -55 -3 -66 -25
-85 -14 -13 -24 -26 -21 -31 3 -4 47 -11 98 -14 75 -5 108 -2 168 13 41 11 76
20 76 20 4 0 54 -81 54 -88 0 -5 -37 -26 -82 -47 -260 -118 -469 -208 -673
-290 -192 -78 -231 -90 -234 -77 -8 39 -75 104 -141 137 -61 31 -70 39 -79 72
-18 62 -13 94 16 125 l26 28 -18 60 c-10 33 -21 60 -24 60 -4 0 -17 -20 -31
-45 -14 -25 -26 -45 -28 -45 -8 0 -99 67 -133 97 l-36 33 -56 -24 -55 -25 -71
28 c-39 15 -77 35 -84 44 -11 16 -138 47 -193 47 -13 0 -51 18 -85 40 -58 38
-67 40 -137 40 -73 0 -75 1 -145 50 -58 41 -72 56 -72 77 0 21 -12 32 -68 64
-38 22 -80 41 -93 44 -13 3 -35 7 -48 10 -16 3 -34 23 -55 60 -26 46 -31 65
-31 123 l0 68 -61 59 c-33 33 -71 83 -85 111 -13 29 -30 56 -37 62 -6 5 -48
17 -92 25 -112 21 -150 45 -164 105 -6 26 -11 58 -10 72 0 14 -5 78 -12 143
-11 98 -11 123 0 150 9 20 14 76 15 147 1 92 5 121 19 143 12 18 17 46 17 90
0 60 2 65 40 102 43 42 51 78 27 125 -12 23 -9 33 31 108 40 76 48 85 100 112
32 15 81 53 111 84 44 45 74 63 164 103 109 47 110 48 157 118 41 61 54 72 99
89 38 14 61 30 92 69 29 38 54 57 89 70 33 12 56 29 74 56 27 38 28 38 69 29
46 -10 132 2 190 27 40 18 38 18 80 0z m1977 -514 l0 -39 -52 -12 c-42 -8 -63
-21 -100 -58 -46 -45 -48 -45 -48 -20 0 14 -7 31 -16 39 -8 7 -22 25 -29 39
-13 26 -12 29 20 60 18 18 39 46 46 61 9 23 18 29 43 29 17 0 38 5 46 10 11 8
24 1 53 -30 30 -32 37 -47 37 -79z m3981 40 c48 -48 36 -111 -26 -137 -58 -24
-115 14 -115 76 0 82 84 118 141 61z m378 -426 c73 -37 46 -155 -35 -155 -46
0 -63 9 -79 41 -22 42 -18 67 14 100 33 32 58 36 100 14z m476 -350 c52 -51
16 -145 -54 -145 -46 0 -85 39 -85 85 0 74 88 112 139 60z m-785 -54 l39 -28
-24 -23 c-20 -19 -25 -33 -25 -75 0 -28 -5 -56 -12 -63 -15 -15 -70 -15 -120
-1 -58 15 -62 67 -13 182 15 36 17 37 65 37 39 0 59 -6 90 -29z m-841 -194
c73 -78 158 -141 254 -192 l65 -33 -23 -22 -24 -22 -58 27 c-100 45 -153 84
-153 111 0 42 -27 94 -48 94 -36 0 -162 178 -162 229 0 3 19 -23 42 -59 23
-35 72 -95 107 -133z m-2375 -178 c14 -17 26 -35 26 -39 0 -5 19 -14 42 -21
35 -9 47 -8 68 5 47 27 93 -2 54 -35 -13 -10 -14 -26 -8 -88 8 -95 15 -108 59
-113 32 -4 36 -1 47 28 8 24 23 36 58 51 40 17 49 26 55 54 8 37 68 131 107
166 23 22 24 22 83 5 51 -15 60 -22 67 -47 11 -43 3 -58 -44 -80 -41 -19 -44
-23 -61 -90 -20 -79 -39 -111 -85 -140 -37 -23 -39 -38 -12 -65 11 -11 20 -22
20 -24 0 -4 -380 -230 -425 -254 -15 -7 -25 -7 -40 4 -26 19 -62 17 -115 -7
-53 -24 -60 -33 -60 -81 0 -35 -3 -38 -73 -77 -82 -45 -109 -45 -133 0 -8 16
-31 42 -52 57 -36 26 -37 29 -34 81 2 30 -4 73 -12 99 -9 25 -16 76 -16 113 0
67 1 69 43 110 23 22 56 52 74 66 18 14 35 35 39 46 10 35 53 86 86 103 25 13
29 20 25 44 -5 21 0 33 19 51 14 13 34 23 44 21 11 -2 26 9 41 30 46 67 74 74
113 27z m2711 -149 c55 -12 115 -49 115 -72 0 -19 54 -88 73 -94 20 -6 20 -7
-4 -19 -13 -7 -43 -16 -65 -19 -39 -7 -44 -5 -106 48 -36 30 -68 67 -72 80 -4
16 -20 33 -43 45 l-37 18 30 16 c16 9 34 15 39 13 6 -2 37 -9 70 -16z m-1930
-43 l13 -45 -56 -35 c-54 -34 -57 -34 -60 -15 -3 18 78 152 86 143 2 -2 9 -23
17 -48z m-2655 -606 c0 -15 5 -32 11 -38 8 -8 4 -16 -14 -28 -23 -15 -30 -15
-82 -1 -67 17 -95 39 -95 75 l0 26 90 -3 90 -3 0 -28z m3470 7 l25 -3 -27 -26
c-27 -25 -28 -31 -28 -121 0 -81 -3 -97 -19 -112 -18 -17 -20 -17 -40 3 -12
12 -25 21 -30 21 -5 0 -23 12 -40 26 -29 24 -31 31 -31 87 l0 62 73 41 c39 22
77 37 82 33 6 -4 21 -9 35 -11z m-3876 -4 c21 -8 21 -67 -1 -85 -9 -8 -39 -14
-67 -14 -44 0 -54 4 -75 28 -21 24 -29 28 -58 22 -36 -6 -38 -4 -22 27 9 17
19 19 84 17 41 -2 77 0 81 4 9 9 37 9 58 1z m3446 -219 c0 -8 8 -22 18 -29 87
-72 83 -66 67 -89 -9 -13 -15 -44 -15 -76 0 -60 -26 -101 -63 -101 -16 0 -18
-5 -13 -27 19 -75 19 -77 -13 -101 -30 -22 -31 -25 -31 -100 0 -101 -22 -181
-55 -206 -25 -18 -26 -21 -19 -84 l7 -65 -24 7 c-13 5 -67 10 -119 12 -134 7
-138 8 -159 57 -32 74 -88 152 -130 182 -40 27 -42 30 -35 71 5 38 3 45 -32
85 -55 63 -61 72 -68 95 -6 20 16 34 231 147 131 69 283 150 338 181 55 30
103 56 108 56 4 0 7 -7 7 -15z m-2410 -1144 c0 -8 -10 -22 -73 -108 -15 -21
-52 -75 -82 -120 -62 -93 -67 -121 -47 -258 6 -44 14 -114 18 -156 5 -69 10
-81 43 -121 20 -25 51 -56 68 -69 20 -14 33 -33 33 -46 1 -65 -219 11 -355
122 l-74 60 -1 52 c0 90 -20 154 -65 218 -54 76 -59 93 -40 138 8 20 15 47 15
60 0 22 19 31 233 112 127 48 250 96 272 106 46 20 55 22 55 10z"/>
<path d="M8344 7231 c-56 -41 -80 -70 -105 -125 -78 -178 54 -386 245 -386 69
0 106 8 106 22 0 5 -27 71 -61 146 -33 75 -77 189 -97 254 -20 65 -39 118 -43
118 -3 0 -24 -13 -45 -29z"/>
<path d="M9215 7570 c-102 -11 -285 -63 -285 -81 0 -16 74 -179 122 -269 203
-382 523 -739 877 -977 l113 -77 21 24 c31 38 93 177 119 265 19 68 23 103 23
230 0 129 -3 160 -23 225 -81 255 -288 494 -519 596 -126 56 -300 81 -448 64z"/>
</g>
</svg>
